# xmcd CD database file generated by Grip 3.2.0
# 
# Track frame offsets:
#       150
#       39067
#       64780
#       94435
#       139912
#       184610
#       227725
#       261995
#       296187
# 
# Disc length: 4127 seconds
# 
# Revision: 1
# Processed by: cddbd v1.5.2PL0 Copyright (c) Steve Scherf et al.
# Submitted via: Grip 3.2.0
# 
DISCID=84101d09
DTITLE=Deuter - Like the wind in the trees
DYEAR=2002
DGENRE=New Age
TTITLE0=Yellow Mandala
TTITLE1=Reflections 2
TTITLE2=Distant Islands
TTITLE3=Loving Touch
TTITLE4=Amida
TTITLE5=Illumination of the Heart
TTITLE6=Gaia Dreaming Herself Awake
TTITLE7=Morining Birds
TTITLE8=Nada Himalya
EXTD=
EXTT0=
EXTT1=
EXTT2=
EXTT3=
EXTT4=
EXTT5=
EXTT6=
EXTT7=
EXTT8=
PLAYORDER=
